<svg width="34" height="36" viewBox="0 0 34 36" fill="none" xmlns="http://www.w3.org/2000/svg">
<g filter="url(#filter0_d_2_670)">
<path d="M17.0015 0.454712L17.7199 1.41174L19.0013 1.70304L18.1639 2.5859L18.2373 3.72288L17.0015 3.31147L15.7657 3.72288L15.8392 2.5859L15.0018 1.70304L16.2832 1.41174L17.0015 0.454712Z" fill="#FFC900"/>
<path d="M27.5003 7.92456L28.2187 8.88159L29.5 9.17288L28.6626 10.0558L28.7361 11.1925L27.5003 10.7813L26.2643 11.1925L26.3377 10.0558L25.5004 9.17288L26.7817 8.88159L27.5003 7.92456Z" fill="#FFC900"/>
<path d="M6.50307 7.92456L5.7847 8.88159L4.50336 9.17288L5.34073 10.0558L5.26727 11.1925L6.50307 10.7813L7.73887 11.1925L7.66541 10.0558L8.50278 9.17288L7.22143 8.88159L6.50307 7.92456Z" fill="#FFC900"/>
<path d="M13.0021 23.7656V23.7983C13.0023 23.9543 12.9922 24.1101 12.9721 24.2651C12.8506 25.1693 12.3771 26 11.6422 26.5995C11.4685 26.7474 11.2793 26.8788 11.0774 26.9917C10.9724 27.0477 10.8724 27.099 10.7623 27.1505C10.6568 27.1996 10.5483 27.2432 10.4373 27.2811C10.3268 27.3238 10.2133 27.3597 10.0975 27.3886C9.981 27.4221 9.86245 27.4486 9.74253 27.4678C9.62193 27.4905 9.50018 27.5061 9.37751 27.5147C9.12829 27.5394 8.87701 27.5394 8.62756 27.5147C8.50513 27.5061 8.38315 27.4905 8.26277 27.4678C8.14263 27.4486 8.02408 27.4221 7.90782 27.3886C7.79202 27.3597 7.67851 27.3238 7.56775 27.2811C7.45698 27.2432 7.34851 27.1996 7.24278 27.1505C7.13293 27.099 7.03292 27.0477 6.92788 26.9917C6.72603 26.8788 6.53677 26.7474 6.36284 26.5995C5.628 26 5.15473 25.1693 5.03321 24.2651C4.99316 23.955 4.99316 23.6415 5.03321 23.3313C5.15473 22.4273 5.628 21.5964 6.36284 20.9969C6.53677 20.849 6.72603 20.7176 6.92788 20.6047C7.03292 20.5487 7.13293 20.4975 7.24278 20.4462C7.34851 20.397 7.45698 20.3532 7.56775 20.3154C7.67851 20.2726 7.79202 20.2367 7.90782 20.2081C8.02408 20.1743 8.14263 20.1478 8.26277 20.1286C8.38315 20.1059 8.50513 20.0903 8.62756 20.082C8.87701 20.057 9.12829 20.057 9.37751 20.082C9.50018 20.0903 9.62193 20.1059 9.74253 20.1286C9.86245 20.1478 9.981 20.1743 10.0975 20.2081C10.2133 20.2367 10.3268 20.2726 10.4373 20.3154C10.5483 20.3532 10.6568 20.397 10.7623 20.4462C10.8724 20.4975 10.9724 20.5487 11.0774 20.6047C11.2793 20.7176 11.4685 20.849 11.6422 20.9969C12.3771 21.5964 12.8506 22.4273 12.9721 23.3313C12.992 23.4754 13.0021 23.6203 13.0021 23.7656Z" fill="#AE44BD"/>
<path d="M11.6424 26.5995C11.6424 26.0838 10.4608 25.6658 9.00326 25.6658C7.5457 25.6658 6.36414 26.0838 6.36414 26.5995C6.36414 27.1152 7.5457 27.5332 9.00326 27.5332C10.4608 27.5332 11.6424 27.1152 11.6424 26.5995Z" fill="#D7DEE2"/>
<path d="M11.6424 20.997C11.6424 20.4813 10.4608 20.0632 9.00326 20.0632C7.5457 20.0632 6.36414 20.4813 6.36414 20.997C6.36414 21.5127 7.5457 21.9309 9.00326 21.9309C10.4608 21.9309 11.6424 21.5127 11.6424 20.997Z" fill="#D7DEE2"/>
<path d="M29.0003 23.7983C29.0005 23.9543 28.9905 24.1101 28.9703 24.2651C28.8488 25.1693 28.3753 26 27.6405 26.5995C27.4668 26.7474 27.2775 26.8788 27.0757 26.9917C26.9706 27.0477 26.8706 27.099 26.7605 27.1505C26.655 27.1996 26.5466 27.2432 26.4356 27.2811C26.325 27.3238 26.2115 27.3597 26.0957 27.3886C25.9795 27.4221 25.8607 27.4486 25.7408 27.4678C25.6204 27.4905 25.4984 27.5061 25.3757 27.5147C25.1265 27.5394 24.8752 27.5394 24.6258 27.5147C24.5034 27.5061 24.3814 27.4905 24.261 27.4678H24.2509C24.1342 27.4486 24.0189 27.4221 23.9061 27.3886C23.7903 27.3597 23.6767 27.3238 23.566 27.2811C23.4552 27.2432 23.3467 27.1996 23.241 27.1505C23.1312 27.099 23.0312 27.0477 22.9261 26.9917C22.7243 26.8788 22.535 26.7474 22.3613 26.5995C21.6262 26 21.153 25.1693 21.0314 24.2651C20.9914 23.955 20.9914 23.6415 21.0314 23.3313C21.153 22.4273 21.6262 21.5964 22.3613 20.9969C22.4462 20.927 22.5361 20.8569 22.6311 20.7915C22.7261 20.7261 22.8261 20.6654 22.9261 20.6047C23.0261 20.544 23.1312 20.4975 23.241 20.4462C23.3467 20.397 23.4552 20.3532 23.566 20.3154C23.6767 20.2726 23.7903 20.2367 23.9061 20.2081C24.0161 20.176 24.1278 20.1495 24.2409 20.1286H24.261C24.3814 20.1059 24.5034 20.0903 24.6258 20.082C24.8752 20.057 25.1265 20.057 25.3757 20.082C25.4984 20.0903 25.6204 20.1059 25.7408 20.1286C25.8607 20.1478 25.9795 20.1743 26.0957 20.2081C26.2115 20.2367 26.325 20.2726 26.4356 20.3154C26.5466 20.3532 26.655 20.397 26.7605 20.4462C26.8706 20.4975 26.9706 20.5487 27.0757 20.6047C27.2775 20.7176 27.4668 20.849 27.6405 20.9969C28.3753 21.5964 28.8488 22.4273 28.9703 23.3313C28.9905 23.4863 29.0005 23.6421 29.0003 23.7983Z" fill="#F88F00"/>
<path d="M27.5006 23.7983C27.5006 23.9543 27.4906 24.1101 27.4704 24.265C27.3489 25.1693 26.8756 26 26.1408 26.5995C25.9669 26.7474 25.7776 26.8788 25.5758 26.9917C25.4707 27.0476 25.3707 27.0989 25.2609 27.1504C25.1551 27.1996 25.0467 27.2432 24.9359 27.281C24.8251 27.3238 24.7116 27.3597 24.5958 27.3885C24.483 27.4221 24.3676 27.4486 24.2509 27.4678C24.1342 27.4486 24.0189 27.4221 23.9061 27.3885C23.7903 27.3597 23.6767 27.3238 23.566 27.281C23.4552 27.2432 23.3467 27.1996 23.241 27.1504C23.1312 27.0989 23.0312 27.0476 22.9261 26.9917C22.7243 26.8788 22.535 26.7474 22.3613 26.5995C21.6262 26 21.153 25.1693 21.0314 24.265C20.9914 23.9549 20.9914 23.6414 21.0314 23.3313C21.153 22.4273 21.6262 21.5964 22.3613 20.9969C22.4462 20.927 22.5361 20.8569 22.6311 20.7915C22.7261 20.7261 22.8261 20.6654 22.9261 20.6047C23.0261 20.544 23.1312 20.4974 23.241 20.4461C23.3467 20.397 23.4552 20.3532 23.566 20.3153C23.6767 20.2726 23.7903 20.2367 23.9061 20.208C24.0161 20.176 24.1278 20.1495 24.2409 20.1285H24.2509C24.3676 20.1478 24.483 20.1745 24.5958 20.208C24.7116 20.2367 24.8251 20.2726 24.9359 20.3153C25.0467 20.3532 25.1551 20.397 25.2609 20.4461C25.3707 20.4974 25.4707 20.5487 25.5758 20.6047C25.7776 20.7175 25.9669 20.849 26.1408 20.9969C26.8756 21.5964 27.3489 22.4273 27.4704 23.3313C27.4906 23.4863 27.5006 23.6421 27.5006 23.7983Z" fill="#FFC900"/>
<path d="M27.6396 26.5995C27.6396 26.0838 26.4581 25.6658 25.0005 25.6658C23.543 25.6658 22.3614 26.0838 22.3614 26.5995C22.3614 27.1152 23.543 27.5332 25.0005 27.5332C26.4581 27.5332 27.6396 27.1152 27.6396 26.5995Z" fill="#D7DEE2"/>
<path d="M27.6396 20.997C27.6396 20.4813 26.4581 20.0632 25.0005 20.0632C23.543 20.0632 22.3614 20.4813 22.3614 20.997C22.3614 21.5127 23.543 21.9309 25.0005 21.9309C26.4581 21.9309 27.6396 21.5127 27.6396 20.997Z" fill="#D7DEE2"/>
<path d="M25.0006 16.3284C25.0006 16.4844 24.9908 16.6405 24.9706 16.7954C24.8489 17.6994 24.3756 18.5304 23.6408 19.1296C23.4668 19.2777 23.2776 19.4092 23.0757 19.5218C22.9709 19.5778 22.8709 19.6293 22.7608 19.6806C22.6553 19.7297 22.5466 19.7733 22.4359 19.8114C22.3269 19.8541 22.215 19.89 22.101 19.9187H22.096C21.9832 19.9529 21.8678 19.9794 21.7509 19.9982H21.7411C21.6205 20.0208 21.4987 20.0364 21.376 20.0448C21.2914 20.0542 21.2062 20.0587 21.1211 20.0589C21.0813 20.0627 21.0412 20.0642 21.0012 20.0634C20.9543 20.0642 20.9076 20.0627 20.8611 20.0589C20.7826 20.0589 20.7041 20.0542 20.6261 20.0448H20.6062C20.4863 20.0354 20.3712 20.0168 20.2611 19.9982H20.2412C20.1281 19.9772 20.0162 19.9507 19.9061 19.9187C19.7906 19.89 19.677 19.8541 19.5663 19.8114C19.4555 19.7733 19.347 19.7297 19.2413 19.6806C19.1312 19.6293 19.0315 19.5778 18.9264 19.5218C18.8214 19.4658 18.7264 19.4004 18.6314 19.3352C18.5364 19.2698 18.4465 19.1997 18.3614 19.1296C17.6265 18.5304 17.1533 17.6994 17.0315 16.7954C16.9917 16.4853 16.9917 16.1718 17.0315 15.8617C17.1533 14.9574 17.6265 14.1267 18.3614 13.5272C18.4465 13.4571 18.5364 13.3873 18.6314 13.3219C18.7264 13.2565 18.8264 13.1958 18.9264 13.1351C19.0264 13.0744 19.1312 13.0276 19.2413 12.9763C19.347 12.9271 19.4555 12.8835 19.5663 12.8455C19.6752 12.8029 19.7871 12.767 19.9013 12.7382H19.9061C20.0192 12.7046 20.1345 12.6781 20.2512 12.6589H20.2611C20.3817 12.636 20.5037 12.6204 20.6261 12.6121C20.8753 12.5873 21.1268 12.5873 21.376 12.6121C21.4987 12.6204 21.6205 12.636 21.7411 12.6589C21.861 12.6781 21.9795 12.7046 22.096 12.7382C22.2116 12.767 22.3253 12.8027 22.4359 12.8455C22.5466 12.8835 22.6553 12.9271 22.7608 12.9763C22.8709 13.0276 22.9709 13.0791 23.0757 13.1351C23.2776 13.2479 23.4668 13.3791 23.6408 13.5272C24.3756 14.1267 24.8489 14.9574 24.9706 15.8617C24.9908 16.0164 25.0006 16.1724 25.0006 16.3284Z" fill="#354AA3"/>
<path d="M23.5007 16.328C23.5009 16.484 23.4909 16.64 23.4707 16.7949C23.3492 17.699 22.8759 18.5299 22.1409 19.1292C21.9672 19.2773 21.7779 19.4087 21.5761 19.5213C21.471 19.5773 21.371 19.6288 21.2612 19.6801C21.1554 19.7293 21.047 19.7729 20.9362 19.8109C20.827 19.8537 20.7151 19.8896 20.6012 19.9182H20.5961C20.4867 19.9524 20.3748 19.9789 20.2611 19.9977H20.2412C20.1281 19.9768 20.0162 19.9503 19.9061 19.9182C19.7906 19.8896 19.677 19.8537 19.5663 19.8109C19.4555 19.7729 19.347 19.7293 19.2413 19.6801C19.1312 19.6288 19.0315 19.5773 18.9264 19.5213C18.8214 19.4653 18.7264 19.4 18.6314 19.3348C18.5364 19.2694 18.4465 19.1993 18.3614 19.1292C17.6265 18.5299 17.1533 17.699 17.0315 16.7949C16.9917 16.4848 16.9917 16.1713 17.0315 15.8612C17.1533 14.957 17.6265 14.1263 18.3614 13.5268C18.4465 13.4567 18.5364 13.3868 18.6314 13.3214C18.7264 13.256 18.8264 13.1953 18.9264 13.1346C19.0264 13.0739 19.1312 13.0271 19.2413 12.9758C19.347 12.9267 19.4555 12.8831 19.5663 12.845C19.6752 12.8025 19.7871 12.7666 19.9013 12.7377H19.9061C20.0192 12.7042 20.1345 12.6777 20.2512 12.6584C20.3679 12.6777 20.4831 12.7042 20.5961 12.7377C20.7119 12.7666 20.8254 12.8023 20.9362 12.845C21.047 12.8831 21.1554 12.9267 21.2612 12.9758C21.371 13.0271 21.471 13.0786 21.5761 13.1346C21.7779 13.2475 21.9672 13.3787 22.1409 13.5268C22.8759 14.1263 23.3492 14.957 23.4707 15.8612C23.4909 16.0159 23.5009 16.172 23.5007 16.328Z" fill="#5068C1"/>
<path d="M23.6402 19.1293C23.6402 18.6136 22.4586 18.1956 21.001 18.1956C19.5435 18.1956 18.3617 18.6136 18.3617 19.1293C18.3617 19.645 19.5435 20.063 21.001 20.063C22.4586 20.063 23.6402 19.645 23.6402 19.1293Z" fill="#D7DEE2"/>
<path d="M23.6402 13.5272C23.6402 13.0115 22.4586 12.5935 21.001 12.5935C19.5435 12.5935 18.3617 13.0115 18.3617 13.5272C18.3617 14.0429 19.5435 14.461 21.001 14.461C22.4586 14.461 23.6402 14.0429 23.6402 13.5272Z" fill="#D7DEE2"/>
<path d="M20.8612 8.85826C20.8612 9.01427 20.8514 9.17007 20.8312 9.32501C20.7095 10.2293 20.2362 11.06 19.5014 11.6595C19.3274 11.8073 19.1384 11.9388 18.9363 12.0516C18.8315 12.1076 18.7315 12.1589 18.6214 12.2104C18.5159 12.2596 18.4074 12.3032 18.2965 12.341C18.1859 12.3837 18.0722 12.4196 17.9566 12.4485C17.8401 12.482 17.7216 12.5086 17.6017 12.5278C17.4811 12.5504 17.3593 12.566 17.2366 12.5744C16.9874 12.5994 16.7359 12.5994 16.4867 12.5744C16.3844 12.5669 16.2828 12.5545 16.1819 12.5372C16.1615 12.5363 16.1414 12.5331 16.1219 12.5278H16.1118C16.0569 12.5184 15.9967 12.5045 15.9418 12.4904C15.8823 12.4808 15.8239 12.4669 15.767 12.4485C15.6512 12.4196 15.5376 12.3837 15.4269 12.341C15.3168 12.3036 15.2069 12.257 15.1019 12.2104C14.9969 12.1636 14.887 12.1029 14.787 12.0516C14.687 11.9909 14.592 11.9302 14.497 11.8648C14.4021 11.7994 14.3121 11.734 14.222 11.6595C13.4871 11.06 13.0139 10.2293 12.8921 9.32501C12.8523 9.01491 12.8523 8.70139 12.8921 8.39128C13.0139 7.48726 13.4871 6.65632 14.222 6.05685C14.3959 5.90895 14.5852 5.77752 14.787 5.66468C14.887 5.61338 14.9918 5.55739 15.1019 5.5061C15.212 5.45459 15.3168 5.4127 15.4269 5.3753C15.5376 5.33256 15.6512 5.29665 15.767 5.26802C15.8834 5.23489 16.002 5.20839 16.1219 5.18851C16.1414 5.18317 16.1615 5.17996 16.1819 5.17911C16.2828 5.1618 16.3844 5.1494 16.4867 5.14192C16.5798 5.13252 16.6732 5.12782 16.7668 5.12782C16.83 5.12162 16.8936 5.12162 16.9568 5.12782C17.0501 5.12782 17.1437 5.13252 17.2366 5.14192C17.3593 5.15026 17.4811 5.16586 17.6017 5.18851C17.7216 5.20775 17.8401 5.23425 17.9566 5.26802C18.0722 5.29665 18.1859 5.33256 18.2965 5.3753C18.4074 5.41313 18.5159 5.45694 18.6214 5.5061C18.7315 5.55739 18.8315 5.60868 18.9363 5.66468C19.1384 5.77752 19.3274 5.90895 19.5014 6.05685C20.2362 6.65632 20.7095 7.48726 20.8312 8.39128C20.8514 8.54623 20.8612 8.70203 20.8612 8.85826Z" fill="#D13D34"/>
<path d="M19.5014 8.8586C19.5016 9.01462 19.4915 9.17042 19.4714 9.32536C19.3496 10.2296 18.8764 11.0603 18.1415 11.6598C17.9678 11.8077 17.7786 11.9391 17.5767 12.052C17.4717 12.108 17.3717 12.1593 17.2616 12.2108C17.1561 12.2599 17.0476 12.3035 16.9366 12.3413C16.8261 12.3841 16.7126 12.42 16.5968 12.4488C16.4803 12.4824 16.3617 12.5089 16.2418 12.5281C16.2029 12.5405 16.1606 12.5405 16.1219 12.5281H16.1118C16.0569 12.5187 15.9967 12.5048 15.9418 12.4907C15.8823 12.4811 15.8239 12.4672 15.767 12.4488C15.6512 12.42 15.5376 12.3841 15.4269 12.3413C15.3168 12.3039 15.2069 12.2574 15.1019 12.2108C14.9969 12.164 14.887 12.1033 14.787 12.052C14.687 11.9913 14.592 11.9306 14.497 11.8652C14.4021 11.7998 14.3121 11.7344 14.222 11.6598C13.4871 11.0603 13.0139 10.2296 12.8921 9.32536C12.8523 9.01526 12.8523 8.70174 12.8921 8.39163C13.0139 7.48761 13.4871 6.65667 14.222 6.0572C14.3959 5.9093 14.5852 5.77787 14.787 5.66502C14.887 5.61373 14.9918 5.55774 15.1019 5.50645C15.212 5.45494 15.3168 5.41305 15.4269 5.37565C15.5376 5.33291 15.6512 5.297 15.767 5.26837C15.8834 5.23524 16.002 5.20874 16.1219 5.18886C16.1606 5.17647 16.2029 5.17647 16.2418 5.18886C16.3617 5.2081 16.4803 5.2346 16.5968 5.26837C16.7126 5.297 16.8261 5.33291 16.9366 5.37565C17.0476 5.41348 17.1561 5.45729 17.2616 5.50645C17.3717 5.55774 17.4717 5.60903 17.5767 5.66502C17.7786 5.77787 17.9678 5.9093 18.1415 6.0572C18.8764 6.65667 19.3496 7.48761 19.4714 8.39163C19.4915 8.54658 19.5016 8.70238 19.5014 8.8586Z" fill="#F85B44"/>
<path d="M19.5013 11.6596C19.5013 11.1439 18.3197 10.7258 16.8621 10.7258C15.4046 10.7258 14.223 11.1439 14.223 11.6596C14.223 12.1753 15.4046 12.5933 16.8621 12.5933C18.3197 12.5933 19.5013 12.1753 19.5013 11.6596Z" fill="#D7DEE2"/>
<path d="M19.5013 6.0569C19.5013 5.5412 18.3197 5.12317 16.8621 5.12317C15.4046 5.12317 14.223 5.5412 14.223 6.0569C14.223 6.5726 15.4046 6.99063 16.8621 6.99063C18.3197 6.99063 19.5013 6.5726 19.5013 6.0569Z" fill="#D7DEE2"/>
<path d="M21.001 23.7983C21.0017 23.9152 20.9951 24.0321 20.9809 24.1483C20.98 24.1859 20.9768 24.2234 20.9711 24.2603C20.961 24.3398 20.9459 24.4144 20.931 24.4892C20.9104 24.6012 20.882 24.7119 20.8459 24.8207C20.8152 24.9286 20.7768 25.0348 20.731 25.1381C20.6905 25.2417 20.6436 25.343 20.5909 25.4415C20.536 25.5443 20.4811 25.6377 20.4211 25.7356C20.3761 25.801 20.3259 25.8664 20.276 25.9318C20.1964 26.0506 20.1044 26.1616 20.0012 26.2633C19.3593 26.9495 18.4695 27.3915 17.5014 27.5052C17.1694 27.5426 16.8336 27.5426 16.5016 27.5052C15.5333 27.3915 14.6438 26.9495 14.0018 26.2633C13.8435 26.1009 13.7027 25.9243 13.5819 25.7356C13.5219 25.6377 13.467 25.5443 13.4118 25.4415C13.3592 25.343 13.3125 25.2417 13.272 25.1381C13.2263 25.0348 13.1878 24.9286 13.1569 24.8207C13.121 24.7119 13.0926 24.6012 13.072 24.4892C13.0569 24.4144 13.042 24.3398 13.032 24.2603C13.0278 24.234 13.0262 24.2075 13.0269 24.181C13.0226 24.1708 13.0207 24.1594 13.0219 24.1483C13.0079 24.0321 13.0011 23.9152 13.002 23.7983V23.7656C13.0011 23.6593 13.0077 23.5533 13.0219 23.448C13.0228 23.4106 13.0262 23.3732 13.032 23.336C13.042 23.2567 13.0569 23.1819 13.072 23.1073C13.0926 22.9951 13.121 22.8844 13.1569 22.7758C13.1878 22.6677 13.2263 22.5617 13.272 22.4583C13.3125 22.3548 13.3592 22.2535 13.4118 22.1548C13.467 22.052 13.5219 21.9588 13.5819 21.8607C13.7027 21.6722 13.8435 21.4955 14.0018 21.333C14.6438 20.6468 15.5333 20.2048 16.5016 20.0911C16.8336 20.0539 17.1694 20.0539 17.5014 20.0911C18.4695 20.2048 19.3593 20.6468 20.0012 21.333C20.1596 21.4955 20.3003 21.6722 20.4211 21.8607C20.4811 21.9588 20.536 22.052 20.5909 22.1548C20.6436 22.2535 20.6905 22.3548 20.731 22.4583C20.7768 22.5617 20.8152 22.6677 20.8459 22.7758C20.882 22.8844 20.9104 22.9951 20.931 23.1073C20.9459 23.1819 20.961 23.2567 20.9711 23.336C20.9768 23.3732 20.98 23.4106 20.9809 23.448C20.9951 23.5642 21.0017 23.6811 21.001 23.7983Z" fill="#00B7F6"/>
<path d="M21.0011 23.798C21.0011 22.4368 20.5532 21.3334 20.0012 21.3334C19.449 21.3334 19.0012 22.4368 19.0012 23.798C19.0012 25.1591 19.449 26.2626 20.0012 26.2626C20.5532 26.2626 21.0011 25.1591 21.0011 23.798Z" fill="#D7DEE2"/>
<path d="M15.0016 23.798C15.0016 22.4368 14.554 21.3334 14.0017 21.3334C13.4495 21.3334 13.0019 22.4368 13.0019 23.798C13.0019 25.1591 13.4495 26.2626 14.0017 26.2626C14.554 26.2626 15.0016 25.1591 15.0016 23.798Z" fill="#D7DEE2"/>
<path d="M17.0015 16.3285C17.0024 16.4456 16.9958 16.5625 16.9816 16.6788C16.9807 16.7162 16.9775 16.7536 16.9715 16.7908C16.9617 16.87 16.9466 16.9448 16.9315 17.0194C16.9109 17.1316 16.8825 17.2423 16.8466 17.3509C16.8159 17.4591 16.7775 17.5651 16.7317 17.6685C16.691 17.7719 16.6443 17.8732 16.5917 17.972C16.5367 18.0746 16.4816 18.168 16.4216 18.266C16.3768 18.3314 16.3266 18.3968 16.2768 18.462C16.1971 18.5809 16.1049 18.692 16.0017 18.7935C15.3597 19.48 14.4702 19.9219 13.5021 20.0354C13.1699 20.0728 12.8344 20.0728 12.5023 20.0354C11.534 19.9219 10.6445 19.48 10.0025 18.7935C9.84395 18.6313 9.70343 18.4545 9.5826 18.266C9.52264 18.168 9.46748 18.0746 9.41256 17.972C9.35992 17.8732 9.31324 17.7719 9.2725 17.6685C9.22673 17.5651 9.18851 17.4591 9.15762 17.3509C9.12169 17.2423 9.09331 17.1316 9.07271 17.0194C9.04823 16.907 9.03152 16.7931 9.0226 16.6788C8.99605 16.4458 8.99605 16.2112 9.0226 15.9784C9.03152 15.8639 9.04823 15.75 9.07271 15.6375C9.09331 15.5255 9.12169 15.4146 9.15762 15.3061C9.18851 15.1979 9.22673 15.0919 9.2725 14.9887C9.31324 14.885 9.35992 14.7837 9.41256 14.6852C9.46748 14.5824 9.52264 14.489 9.5826 14.3909C9.70343 14.2024 9.84395 14.0257 10.0025 13.8635C10.6445 13.177 11.534 12.735 12.5023 12.6216C12.8344 12.5842 13.1699 12.5842 13.5021 12.6216C14.4702 12.735 15.3597 13.177 16.0017 13.8635C16.1603 14.0257 16.301 14.2024 16.4216 14.3909C16.4816 14.489 16.5367 14.5824 16.5917 14.6852C16.6443 14.7837 16.691 14.885 16.7317 14.9887C16.7775 15.0919 16.8159 15.1979 16.8466 15.3061C16.8825 15.4146 16.9109 15.5255 16.9315 15.6375C16.9466 15.7123 16.9617 15.7869 16.9715 15.8662C16.9775 15.9034 16.9807 15.9408 16.9816 15.9784C16.9958 16.0947 17.0024 16.2116 17.0015 16.3285Z" fill="#5AB862"/>
<path d="M17.0016 16.3282C17.0016 14.9671 16.554 13.8636 16.0017 13.8636C15.4495 13.8636 15.0019 14.9671 15.0019 16.3282C15.0019 17.6894 15.4495 18.7928 16.0017 18.7928C16.554 18.7928 17.0016 17.6894 17.0016 16.3282Z" fill="#D7DEE2"/>
<path d="M11.0024 16.3282C11.0024 14.9671 10.5548 13.8636 10.0025 13.8636C9.45032 13.8636 9.00269 14.9671 9.00269 16.3282C9.00269 17.6894 9.45032 18.7928 10.0025 18.7928C10.5548 18.7928 11.0024 17.6894 11.0024 16.3282Z" fill="#D7DEE2"/>
<path d="M19.4784 1.56334C19.4263 1.40712 19.2899 1.28786 19.1196 1.24918L18.0197 0.999343L17.4112 0.186575C17.3128 0.068817 17.1618 0 17.0018 0C16.8418 0 16.6908 0.068817 16.5924 0.186575L15.9825 0.999343L14.8826 1.24918C14.7121 1.28786 14.576 1.4069 14.5233 1.56313C14.4709 1.71936 14.5098 1.8899 14.6261 2.01258L15.3261 2.75076L15.2671 3.69475C15.2573 3.85098 15.3321 4.00143 15.4664 4.09525C15.6005 4.18929 15.7761 4.21408 15.934 4.16151L17.0018 3.80674L18.0696 4.16193C18.2278 4.21451 18.4033 4.18972 18.5374 4.0959C18.6715 4.00186 18.7463 3.8514 18.7367 3.69518L18.6761 2.75119L19.3761 2.01301C19.4924 1.89033 19.5313 1.71957 19.4784 1.56334ZM17.7897 2.27545C17.7023 2.3682 17.6577 2.4896 17.6652 2.61291L17.6934 3.04526L17.1698 2.87108C17.0613 2.83432 16.9425 2.83432 16.8338 2.87108L16.3104 3.04526L16.3384 2.61291C16.3461 2.4896 16.3013 2.3682 16.2139 2.27545L15.9264 1.97283L16.402 1.86447C16.5203 1.83754 16.6237 1.77108 16.6933 1.67768L17.0018 1.26777L17.3103 1.67961C17.3799 1.773 17.4835 1.83947 17.6018 1.86639L18.0772 1.97475L17.7897 2.27545Z" fill="black"/>
<path d="M29.6178 8.71854L28.5179 8.4687L27.908 7.65594C27.8096 7.53818 27.6586 7.46936 27.4986 7.46936C27.3386 7.46936 27.1876 7.53818 27.0892 7.65594L26.4793 8.4687L25.3794 8.71854C25.2089 8.75722 25.0725 8.87626 25.0201 9.03249C24.9675 9.18872 25.0066 9.35926 25.1229 9.48194L25.8227 10.2201L25.7653 11.165C25.7557 11.3214 25.8305 11.4716 25.9646 11.5657C26.0987 11.6595 26.2742 11.6845 26.4322 11.6319L27.5002 11.277L28.568 11.6324C28.7259 11.6849 28.9015 11.6599 29.0356 11.5661C29.1697 11.4723 29.2445 11.3218 29.2349 11.1654L29.1745 10.2214L29.8743 9.48322C29.9906 9.36076 30.0295 9.19021 29.9771 9.03399C29.9247 8.87776 29.7883 8.7585 29.6178 8.72004V8.71854ZM28.2879 9.74567C28.2007 9.83863 28.1559 9.95981 28.1634 10.0833L28.1916 10.5155L27.6682 10.3415C27.5595 10.3048 27.4407 10.3048 27.3322 10.3415L26.8086 10.5155L26.8368 10.0833C26.8443 9.95981 26.7995 9.83863 26.7123 9.74567L26.4248 9.44326L26.9002 9.3349C27.0185 9.30776 27.1221 9.24151 27.1917 9.14811L27.5002 8.7382L27.8085 9.15003C27.878 9.24322 27.9817 9.30968 28.1 9.33682L28.5754 9.44496L28.2879 9.74567Z" fill="black"/>
<path d="M4.76822 11.1642C4.75838 11.3206 4.83322 11.4709 4.96733 11.5649C5.10143 11.6587 5.27719 11.6837 5.4351 11.6312L6.50292 11.2762L7.57075 11.6316C7.72866 11.6842 7.90441 11.6592 8.03852 11.5653C8.17263 11.4715 8.24746 11.3211 8.23762 11.1646L8.17721 10.2206L8.87704 9.48246C8.99352 9.36 9.03243 9.18945 8.98002 9.03322C8.92738 8.877 8.79122 8.75774 8.62072 8.71927L7.52086 8.46944L6.91097 7.65667C6.81256 7.53891 6.66152 7.47009 6.50155 7.47009C6.34158 7.47009 6.19054 7.53891 6.09191 7.65667L5.48201 8.46944L4.38215 8.71927C4.21188 8.75774 4.07549 8.877 4.02285 9.03322C3.97045 9.18945 4.00958 9.36 4.12584 9.48246L4.82567 10.2206L4.76822 11.1642ZM5.9031 9.33456C6.02119 9.30764 6.12486 9.24117 6.19443 9.14778L6.50292 8.73744L6.81142 9.14927C6.88099 9.24245 6.98466 9.30892 7.10297 9.33606L7.5783 9.4442L7.29086 9.74683C7.20344 9.83979 7.15881 9.96097 7.16637 10.0843L7.19429 10.5166L6.6709 10.3425C6.56243 10.3059 6.44342 10.3059 6.33495 10.3425L5.81156 10.5166L5.83948 10.0843C5.84703 9.96097 5.80241 9.83979 5.71499 9.74683L5.42755 9.4442L5.9031 9.33456Z" fill="black"/>
<path d="M27.9776 20.6564C27.9747 20.6536 27.9735 20.6497 27.9701 20.647C27.9666 20.6442 27.9495 20.632 27.9396 20.6241C27.8655 20.5643 27.7895 20.5078 27.7117 20.4527C27.6781 20.429 27.6446 20.4061 27.6117 20.3822C27.5346 20.3309 27.4552 20.2819 27.3746 20.2351C27.3366 20.2133 27.2991 20.1913 27.2606 20.1704C27.1808 20.1263 27.0991 20.0851 27.0158 20.0466C26.9741 20.027 26.9322 20.0077 26.8897 19.9896C26.8077 19.9541 26.7251 19.9205 26.6398 19.8893C26.5896 19.872 26.5439 19.856 26.4953 19.8397C26.4143 19.813 26.3333 19.7874 26.2507 19.7649C26.1928 19.7491 26.1342 19.7365 26.0763 19.7231C26.0003 19.7053 25.9264 19.6876 25.8479 19.6735C25.7694 19.6596 25.6939 19.6506 25.6168 19.6408C25.5548 19.6329 25.4939 19.6226 25.4314 19.6171C25.2888 19.604 25.1449 19.5965 25.0005 19.5965C24.8561 19.5965 24.7119 19.604 24.5696 19.6171C24.5071 19.6226 24.446 19.6329 24.384 19.6408C24.3071 19.6506 24.2295 19.66 24.153 19.6735C24.0766 19.6872 24.0032 19.7053 23.9247 19.7231C23.8665 19.7365 23.8082 19.7491 23.75 19.7649C23.6677 19.7874 23.5866 19.8118 23.5056 19.8397C23.4766 19.8496 23.4466 19.8566 23.4182 19.8669C23.4837 19.8276 23.5477 19.7865 23.6111 19.7444C23.6452 19.7216 23.6786 19.6978 23.7111 19.6739C23.7892 19.619 23.8652 19.5623 23.9391 19.5027C23.9491 19.4948 23.9601 19.4878 23.9695 19.4798C23.9791 19.4719 23.9741 19.4732 23.9771 19.4704C24.9446 18.6763 25.4994 17.5314 25.4994 16.3284C25.4994 15.1254 24.9446 13.9805 23.9771 13.1863C23.9741 13.1835 23.9732 13.1799 23.9695 13.1771C23.9661 13.1741 23.9491 13.1621 23.9391 13.154C23.8652 13.0944 23.7892 13.038 23.7111 12.9828C23.6777 12.9589 23.6441 12.936 23.6111 12.9123C23.5342 12.861 23.4546 12.8119 23.3743 12.7653C23.3363 12.7433 23.2987 12.7212 23.2601 12.7003C23.1802 12.6565 23.0985 12.6152 23.0152 12.5766C22.9738 12.5569 22.9317 12.5379 22.8893 12.5197C22.8072 12.4842 22.7248 12.4505 22.6392 12.4193C22.5893 12.402 22.5433 12.3861 22.4948 12.3697C22.4138 12.3432 22.3328 12.3175 22.2504 12.2951C22.1922 12.2793 22.1339 12.2667 22.0758 12.253C21.9998 12.2353 21.9259 12.2175 21.8474 12.2036C21.7689 12.1895 21.6933 12.1808 21.6165 12.1709C21.5544 12.163 21.4933 12.1528 21.4309 12.147C21.2894 12.134 21.1455 12.1265 21.0011 12.1265C20.8564 12.1265 20.7125 12.134 20.5701 12.147C20.5074 12.1528 20.4466 12.163 20.3845 12.1709C20.3076 12.1808 20.2301 12.1899 20.1536 12.2036C20.0772 12.2171 20.0035 12.2353 19.925 12.253C19.8671 12.2667 19.8085 12.2793 19.7506 12.2951C19.6682 12.3175 19.5872 12.3417 19.5062 12.3697C19.4561 12.3861 19.4092 12.402 19.3611 12.4197C19.2771 12.4505 19.1947 12.4842 19.1112 12.5197C19.0686 12.5379 19.0263 12.5569 18.9842 12.5766C18.9013 12.6159 18.8196 12.6571 18.7398 12.7003C18.7013 12.7212 18.6638 12.7433 18.6258 12.7653C18.5453 12.8119 18.4658 12.861 18.3887 12.9123C18.3548 12.9352 18.3212 12.9589 18.2887 12.9828C18.2109 13.038 18.1349 13.0944 18.0608 13.154C18.0509 13.1621 18.0399 13.169 18.0303 13.1771C18.021 13.185 18.0258 13.1835 18.0228 13.1863C17.604 13.5332 17.2577 13.9495 17.0014 14.4143C16.965 14.3489 16.9266 14.2844 16.887 14.2209C16.8646 14.185 16.8414 14.1499 16.8174 14.1145C16.7675 14.0392 16.7174 13.9651 16.66 13.8933C16.6355 13.8614 16.6101 13.8302 16.5844 13.7999C16.5256 13.727 16.465 13.656 16.4011 13.587C16.3927 13.5776 16.3851 13.5674 16.3767 13.5584C16.3682 13.5496 16.37 13.5547 16.3675 13.552C16.1299 13.3008 15.8615 13.0769 15.5677 12.8847L15.6116 12.895C15.6693 12.9108 15.7276 12.9234 15.7858 12.9371C15.8617 12.9542 15.9357 12.9726 16.0146 12.9865C16.0936 13.0006 16.1677 13.0093 16.2446 13.0192C16.3066 13.0271 16.3682 13.0373 16.4311 13.0431C16.5735 13.0561 16.7174 13.0636 16.862 13.0636C17.0065 13.0636 17.1499 13.0561 17.293 13.0431C17.3559 13.0373 17.417 13.0271 17.4795 13.0192C17.5559 13.0093 17.6328 13.0001 17.7088 12.9865C17.7848 12.973 17.8619 12.9542 17.9379 12.9371C17.9965 12.9234 18.0544 12.9108 18.1118 12.895C18.1949 12.8726 18.2759 12.8484 18.3562 12.8204C18.4063 12.804 18.4562 12.7881 18.5018 12.7704C18.5858 12.7396 18.6684 12.7059 18.7517 12.6704C18.7942 12.6522 18.8364 12.6332 18.8782 12.6135C18.9618 12.5742 19.0432 12.5332 19.1231 12.4894C19.1618 12.4688 19.1993 12.4473 19.2366 12.4252C19.3172 12.3787 19.3966 12.3321 19.4742 12.2778C19.5083 12.2549 19.5417 12.2312 19.5742 12.2073C19.6518 12.1521 19.7282 12.0957 19.8021 12.0361L19.8325 12.013C19.8355 12.0102 19.8371 12.0066 19.8401 12.0038C20.8077 11.2096 21.3624 10.0647 21.3624 8.86172C21.3624 7.65871 20.8077 6.51382 19.8401 5.71965C19.8371 5.71687 19.8355 5.71302 19.8325 5.71024L19.8012 5.68374C19.727 5.6239 19.6511 5.56748 19.5733 5.51234C19.5396 5.48862 19.5062 5.46575 19.4733 5.44181C19.3954 5.39052 19.3163 5.34137 19.2357 5.29478C19.1982 5.27276 19.1602 5.25096 19.1222 5.22981C19.0416 5.18599 18.9599 5.14475 18.8773 5.10606C18.8357 5.08662 18.7933 5.06738 18.7512 5.04922C18.6693 5.01374 18.5867 4.98018 18.5013 4.94877C18.4512 4.93146 18.4052 4.91564 18.3569 4.8994C18.2759 4.87268 18.1949 4.84704 18.1118 4.8246C18.0544 4.80878 17.9958 4.79617 17.9374 4.78271C17.8619 4.76497 17.7873 4.74723 17.7095 4.73313C17.6314 4.71924 17.5555 4.71026 17.4779 4.70043C17.4163 4.69252 17.3555 4.68226 17.293 4.67671C17.1515 4.6641 17.0065 4.65662 16.862 4.65662C16.7174 4.65662 16.5735 4.6641 16.4311 4.67713C16.3682 4.68269 16.3075 4.69295 16.2455 4.70086C16.1682 4.71069 16.0906 4.72009 16.0146 4.73355C15.9386 4.74723 15.8617 4.7654 15.7862 4.78314C15.7276 4.7966 15.6693 4.80921 15.6116 4.82503C15.5288 4.84747 15.4482 4.87183 15.3672 4.89983C15.3173 4.91607 15.2702 4.9321 15.2223 4.94984C15.1383 4.98061 15.0557 5.01417 14.9722 5.04964C14.9298 5.06781 14.8877 5.08704 14.8459 5.10671C14.7628 5.14582 14.6813 5.18706 14.6012 5.23045C14.5628 5.25139 14.5248 5.2734 14.4872 5.2952C14.4069 5.34201 14.3273 5.39095 14.2504 5.44224C14.2158 5.46511 14.1829 5.48905 14.1504 5.51277C14.0723 5.56791 13.9959 5.62433 13.9224 5.68417C13.9124 5.69208 13.9014 5.69913 13.8913 5.70704C13.8815 5.71495 13.8874 5.71366 13.8845 5.71644C12.9169 6.51062 12.3621 7.65529 12.3621 8.85852C12.3621 10.0615 12.9169 11.2062 13.8845 12.0004C13.8874 12.0034 13.8883 12.007 13.8913 12.0098C13.8943 12.0126 13.9124 12.0247 13.9224 12.0326C13.9959 12.0925 14.0723 12.1489 14.1504 12.2041C14.1838 12.2278 14.2167 12.2506 14.2504 12.2746C14.2653 12.2848 14.2794 12.2955 14.2943 12.3054C12.6145 11.8313 10.7929 12.3173 9.63489 13.5485C9.63238 13.5515 9.62849 13.5524 9.62597 13.5552C9.62345 13.558 9.60995 13.5744 9.60148 13.5836C9.5374 13.6528 9.47699 13.7238 9.41794 13.7965C9.39254 13.8279 9.36805 13.8591 9.34242 13.8899C9.28704 13.9623 9.23509 14.036 9.18451 14.1117C9.16094 14.1467 9.13806 14.1818 9.11609 14.2173C9.06894 14.2923 9.025 14.3684 8.98312 14.4459C8.96207 14.4853 8.94147 14.5248 8.92202 14.5646C8.88403 14.6406 8.8481 14.7176 8.81515 14.7979C8.79615 14.8447 8.77899 14.8881 8.76159 14.9339C8.73299 15.0091 8.70553 15.0847 8.6815 15.1617C8.66456 15.2158 8.65106 15.27 8.63664 15.3241C8.6181 15.3955 8.59865 15.4643 8.58355 15.538C8.56867 15.6118 8.55906 15.6812 8.54853 15.7528C8.54007 15.8105 8.52908 15.868 8.52313 15.9268C8.50917 16.0604 8.50116 16.1944 8.50116 16.3292C8.50116 16.4643 8.50917 16.5983 8.52313 16.7319C8.52908 16.7906 8.54007 16.8481 8.54853 16.9058C8.55906 16.9774 8.56913 17.0492 8.58355 17.1206C8.59796 17.1922 8.6181 17.2608 8.63664 17.3346C8.65106 17.3886 8.66456 17.4429 8.6815 17.497C8.70553 17.5739 8.73161 17.6496 8.76159 17.7248C8.77899 17.7716 8.79615 17.8182 8.81515 17.8612C8.8481 17.9392 8.88403 18.0161 8.92156 18.0945C8.94147 18.1343 8.96207 18.174 8.98312 18.2131C9.025 18.2907 9.06894 18.3668 9.11609 18.442C9.13806 18.4775 9.16094 18.5123 9.18451 18.5474C9.2344 18.6231 9.28452 18.6968 9.34242 18.7692C9.36691 18.8009 9.39254 18.8323 9.41794 18.8626C9.47699 18.9355 9.5374 19.0065 9.60148 19.0755C9.60995 19.0849 9.6175 19.0952 9.62597 19.1039C9.63444 19.1129 9.63283 19.1082 9.63604 19.111C9.91272 19.4033 10.2315 19.6585 10.5833 19.8692C10.5549 19.859 10.5249 19.8519 10.4958 19.8421C10.4148 19.8154 10.3338 19.7897 10.2514 19.7673C10.1933 19.7515 10.1349 19.7389 10.0768 19.7254C10.0008 19.7077 9.92691 19.6899 9.84841 19.6758C9.76992 19.6619 9.6944 19.653 9.6175 19.6431C9.55548 19.6352 9.49438 19.625 9.4319 19.6194C9.29093 19.604 9.14698 19.5965 9.00258 19.5965C8.85794 19.5965 8.71399 19.604 8.57165 19.6171C8.50917 19.6226 8.44807 19.6329 8.38605 19.6408C8.30915 19.6506 8.23157 19.66 8.15514 19.6735C8.0787 19.6872 8.00524 19.7053 7.92674 19.7231C7.86861 19.7365 7.81026 19.7491 7.75213 19.7649C7.66974 19.7874 7.58873 19.8118 7.50771 19.8397C7.45782 19.856 7.41068 19.872 7.36285 19.8898C7.27886 19.9205 7.19625 19.9541 7.11271 19.9896C7.07038 20.0077 7.02781 20.027 6.9857 20.0466C6.90286 20.0857 6.82139 20.127 6.74129 20.1704C6.70284 20.1913 6.66531 20.2133 6.62732 20.2351C6.54676 20.2819 6.46735 20.3285 6.39046 20.3822C6.35636 20.405 6.32295 20.429 6.29045 20.4527C6.21241 20.5078 6.13643 20.5643 6.06251 20.6241C6.05244 20.632 6.04146 20.6391 6.03185 20.647C6.02246 20.6549 6.0275 20.6536 6.02452 20.6564C5.05671 21.4505 4.5022 22.5954 4.5022 23.7984C4.5022 25.0015 5.05671 26.1461 6.02452 26.9405C6.0275 26.9433 6.02841 26.9469 6.03185 26.9497C6.03551 26.9525 6.05244 26.9647 6.06251 26.9726C6.13643 27.0324 6.21241 27.0888 6.29045 27.144C6.32386 27.1677 6.35727 27.1906 6.39046 27.2145C6.46781 27.2662 6.54676 27.3149 6.62778 27.362C6.66531 27.384 6.70284 27.4053 6.74083 27.4259C6.82139 27.4699 6.90286 27.5109 6.9857 27.5502C7.02781 27.5697 7.07038 27.5889 7.11271 27.6075C7.19419 27.6426 7.2768 27.6761 7.36285 27.7071C7.41274 27.7249 7.4592 27.7407 7.50817 27.7569C7.58873 27.7836 7.66974 27.8093 7.75213 27.8317C7.80957 27.8475 7.86816 27.8601 7.92605 27.8736C8.00226 27.8909 8.07618 27.9091 8.15514 27.9232C8.23409 27.9373 8.3087 27.9461 8.38513 27.9559C8.44715 27.9638 8.50848 27.9741 8.57165 27.9796C8.71445 27.9926 8.85794 28.0001 9.00258 28.0001C9.14698 28.0001 9.29047 27.9926 9.4335 27.9796C9.49644 27.9741 9.558 27.9638 9.62002 27.9559C9.69646 27.9461 9.77335 27.9366 9.85002 27.9232C9.92645 27.9097 10.0029 27.8909 10.0789 27.8736C10.1368 27.8601 10.1954 27.8475 10.2528 27.8317C10.3354 27.8093 10.4164 27.7849 10.4968 27.7569C10.5469 27.7407 10.5968 27.7249 10.6423 27.7071C10.7263 27.6761 10.8089 27.6426 10.8922 27.6071C10.9348 27.5889 10.9773 27.5697 11.0192 27.5502C11.1023 27.5109 11.1838 27.4699 11.2643 27.4259C11.3023 27.4053 11.3396 27.384 11.3771 27.362C11.4582 27.3154 11.5371 27.2662 11.6147 27.2145C11.6488 27.1916 11.6822 27.1677 11.7147 27.144C11.7927 27.0888 11.8687 27.0324 11.9426 26.9726C11.9527 26.9647 11.9637 26.9576 11.9731 26.9497C11.9827 26.9418 11.9777 26.9433 11.9806 26.9405C12.3992 26.5943 12.7457 26.1788 13.002 25.7148C13.0386 25.7807 13.0771 25.8446 13.1169 25.9087C13.1391 25.9442 13.162 25.9792 13.1855 26.014C13.2354 26.0897 13.2855 26.1634 13.3434 26.2359C13.3679 26.2677 13.3936 26.2989 13.419 26.3293C13.478 26.4022 13.5384 26.4731 13.6025 26.5421C13.611 26.5515 13.6185 26.5618 13.627 26.5706C13.6355 26.5795 13.6339 26.5748 13.6368 26.5776C14.4875 27.4812 15.7132 27.9993 17.0014 27.9993C18.2896 27.9993 19.5156 27.4812 20.366 26.5776C20.369 26.5748 20.3731 26.574 20.3761 26.5706C20.379 26.5674 20.3921 26.5515 20.4006 26.5421C20.4646 26.4731 20.5251 26.4022 20.5841 26.3293C20.6095 26.2981 20.634 26.2667 20.6596 26.2359C20.715 26.1641 20.767 26.0897 20.8171 26.0147C20.8411 25.9792 20.864 25.9442 20.8864 25.9083C20.926 25.8446 20.9645 25.7802 21.0011 25.7148C21.2576 26.1788 21.6043 26.5945 22.0233 26.9405C22.0263 26.9433 22.0272 26.9469 22.0309 26.9497C22.0343 26.9525 22.0513 26.9647 22.0613 26.9726C22.1353 27.0324 22.2112 27.0888 22.2893 27.144C22.3227 27.1677 22.3563 27.1906 22.3893 27.2145C22.4669 27.2662 22.5458 27.3149 22.6268 27.362C22.6644 27.384 22.7017 27.4053 22.7397 27.4259C22.8202 27.4699 22.9017 27.5109 22.9848 27.5502C23.0266 27.5697 23.0692 27.5889 23.1118 27.6075C23.1932 27.6426 23.2756 27.6761 23.3617 27.7071C23.4116 27.7249 23.4583 27.7407 23.5072 27.7569C23.5876 27.7836 23.6686 27.8093 23.7512 27.8317C23.8086 27.8475 23.8672 27.8601 23.9251 27.8736C24.0011 27.8909 24.075 27.9091 24.154 27.9232C24.2331 27.9373 24.3075 27.9461 24.384 27.9559C24.446 27.9638 24.5075 27.9741 24.5705 27.9796C24.7135 27.9926 24.857 28.0001 25.0014 28.0001C25.146 28.0001 25.2895 27.9926 25.4323 27.9796C25.4955 27.9741 25.5568 27.9638 25.6188 27.9559C25.6953 27.9461 25.7724 27.9366 25.8488 27.9232C25.9253 27.9097 26.0017 27.8909 26.0779 27.8736C26.1358 27.8601 26.1944 27.8475 26.2519 27.8317C26.3342 27.8093 26.4153 27.7849 26.4958 27.7569C26.5457 27.7407 26.5958 27.7249 26.6411 27.7071C26.7251 27.6761 26.8077 27.6426 26.8913 27.6071C26.9336 27.5889 26.9762 27.5697 27.0183 27.5502C27.1011 27.5109 27.1826 27.4699 27.2631 27.4259C27.3011 27.4053 27.3387 27.384 27.3762 27.362C27.4572 27.3154 27.5362 27.2662 27.6135 27.2145C27.6476 27.1916 27.681 27.1677 27.7135 27.144C27.7916 27.0888 27.8675 27.0324 27.9415 26.9726C27.9515 26.9647 27.9625 26.9576 27.9721 26.9497C27.9815 26.9418 27.9765 26.9433 27.9795 26.9405C28.9473 26.1461 29.5018 25.0015 29.5018 23.7984C29.5018 22.5954 28.9473 21.4505 27.9795 20.6564H27.9776ZM22.2893 20.4527C22.2112 20.5078 22.1353 20.5643 22.0613 20.6241C22.0513 20.632 22.0403 20.6391 22.0309 20.647C22.0213 20.6549 22.0263 20.6536 22.0233 20.6564C21.6041 21.003 21.2574 21.4193 21.0011 21.8842C20.9645 21.8188 20.926 21.7544 20.8864 21.691C20.864 21.6549 20.8411 21.62 20.8171 21.5845C20.767 21.5093 20.7171 21.4352 20.6596 21.3631C20.6351 21.3315 20.6095 21.3001 20.5841 21.2697C20.5251 21.1969 20.4646 21.1259 20.4006 21.0569C20.3921 21.0475 20.3845 21.0372 20.3761 21.0284C20.3676 21.0195 20.3697 21.0246 20.3671 21.0218C20.0893 20.7292 19.7698 20.4738 19.4172 20.2631C19.4462 20.2734 19.4762 20.2804 19.5051 20.2903C19.5856 20.317 19.6666 20.3426 19.7492 20.3651C19.8067 20.3809 19.865 20.3935 19.9232 20.407C19.9992 20.4243 20.0731 20.4424 20.152 20.4565C20.231 20.4704 20.3056 20.4794 20.382 20.4892C20.444 20.4971 20.5056 20.5074 20.5685 20.513C20.7116 20.526 20.8551 20.5335 20.9995 20.5335C21.1439 20.5335 21.2874 20.526 21.4304 20.513C21.4933 20.5074 21.5549 20.4971 21.6169 20.4892C21.6933 20.4794 21.7705 20.47 21.8469 20.4565C21.9233 20.4429 21.9998 20.4243 22.0758 20.407C22.1339 20.3935 22.1922 20.3809 22.2499 20.3651C22.3323 20.3426 22.4133 20.3183 22.4939 20.2903C22.5232 20.2804 22.5534 20.2734 22.5817 20.2631C22.5163 20.3024 22.4522 20.3431 22.3888 20.3856C22.3563 20.405 22.3227 20.429 22.2893 20.4527ZM20.4715 24.2022C20.4669 24.2348 20.461 24.2671 20.4555 24.2994C20.4376 24.4095 20.4134 24.5185 20.3829 24.6262C20.3765 24.6495 20.371 24.6728 20.3639 24.6956C20.2822 24.9619 20.1648 25.2173 20.014 25.4558L20.0012 25.4744C19.3359 24.4434 19.3359 23.1532 20.0012 22.1223L20.014 22.1419C20.1648 22.3804 20.2822 22.6358 20.3639 22.9019C20.371 22.9248 20.3765 22.9487 20.3829 22.9716C20.4134 23.0793 20.4376 23.1883 20.4555 23.2983C20.461 23.3306 20.4669 23.3627 20.4715 23.3954C20.5109 23.6634 20.5109 23.9352 20.4715 24.2032V24.2022ZM17.0014 26.1327C16.7254 26.1327 16.5016 26.3417 16.5016 26.5996V27.0292C15.8185 26.9371 15.18 26.6578 14.6674 26.2261C15.7798 24.7743 15.7798 22.8224 14.6674 21.3706C15.18 20.9391 15.8185 20.6596 16.5016 20.5677V20.997C16.5016 21.255 16.7254 21.464 17.0014 21.464C17.2776 21.464 17.5015 21.255 17.5015 20.997V20.5677C18.1846 20.6596 18.8231 20.9391 19.3357 21.3706C18.223 22.8224 18.223 24.7743 19.3357 26.2261C18.8231 26.6578 18.1846 26.9371 17.5015 27.0292V26.5996C17.5015 26.3417 17.2776 26.1327 17.0014 26.1327ZM13.99 25.4543C13.8394 25.216 13.7217 24.9608 13.64 24.6948C13.6329 24.6719 13.6274 24.6482 13.621 24.6251C13.5906 24.5176 13.5666 24.4084 13.5485 24.2983C13.543 24.2663 13.5368 24.234 13.5325 24.2013C13.4931 23.9333 13.4931 23.6617 13.5325 23.3937C13.5368 23.361 13.543 23.3287 13.5485 23.2964C13.5666 23.1864 13.5906 23.0774 13.621 22.9696C13.6274 22.9463 13.6329 22.9231 13.64 22.9002C13.7217 22.6339 13.8391 22.3785 13.99 22.14L14.0019 22.1223C14.6671 23.1532 14.6671 24.4434 14.0019 25.4744L13.99 25.4543ZM11.9797 20.6564C11.9767 20.6536 11.9756 20.6497 11.9722 20.647C11.9687 20.6442 11.9516 20.632 11.9417 20.6241C11.8676 20.5643 11.7916 20.5078 11.7138 20.4527C11.6801 20.429 11.6467 20.4061 11.6138 20.3822C11.5463 20.3356 11.4772 20.2941 11.4067 20.252C12.4338 20.623 13.5723 20.623 14.5994 20.252C14.2419 20.4644 13.9179 20.7224 13.6368 21.0186C13.6368 21.0214 13.6304 21.0222 13.6279 21.0252C13.6254 21.028 13.6119 21.0443 13.6034 21.0537C13.5393 21.1227 13.4789 21.1936 13.4199 21.2665C13.3945 21.2977 13.37 21.3291 13.3444 21.3599C13.289 21.4322 13.237 21.5061 13.1865 21.5815C13.1629 21.6166 13.14 21.6516 13.118 21.6871C13.078 21.751 13.0395 21.8151 13.0029 21.881C12.7459 21.4172 12.399 21.0019 11.9797 20.6564ZM7.23034 20.9868C8.32861 20.3952 9.68135 20.3952 10.7798 20.9868L10.7972 20.997C9.68867 21.6031 8.31625 21.6031 7.20769 20.997L7.23034 20.9868ZM9.99282 17.9845C9.84223 17.746 9.7246 17.4908 9.6429 17.2247C9.63604 17.2018 9.63055 17.1781 9.62391 17.1552C9.5937 17.0475 9.56944 16.9385 9.55136 16.8285C9.54587 16.7962 9.53992 16.7639 9.53534 16.7312C9.49621 16.4632 9.49621 16.1916 9.53534 15.9236C9.53992 15.8909 9.54587 15.8586 9.55136 15.8266C9.56944 15.7165 9.5937 15.6073 9.62391 15.4998C9.63055 15.4763 9.63604 15.453 9.6429 15.4301C9.7246 15.164 9.84223 14.9086 9.99282 14.6701L10.0024 14.6524C10.6677 15.6834 10.6677 16.9734 10.0024 18.0046L9.99282 17.9845ZM10.6677 13.9008C11.1806 13.469 11.8188 13.1895 12.5022 13.0976V13.5272C12.5022 13.7849 12.726 13.9939 13.002 13.9939C13.2782 13.9939 13.502 13.7849 13.502 13.5272V13.0976C14.1852 13.1895 14.8237 13.469 15.3363 13.9008C14.2236 15.3523 14.2236 17.3044 15.3363 18.7562C14.8237 19.1877 14.1852 19.4672 13.502 19.5591V19.1296C13.502 18.8718 13.2782 18.6628 13.002 18.6628C12.726 18.6628 12.5022 18.8718 12.5022 19.1296V19.5591C11.8188 19.4672 11.1806 19.1877 10.6677 18.7562C11.7804 17.3044 11.7804 15.3523 10.6677 13.9008ZM16.0137 14.6718C16.1643 14.9104 16.2819 15.1657 16.3636 15.432C16.3705 15.4549 16.376 15.4786 16.3826 15.5015C16.4128 15.6092 16.4371 15.7184 16.4551 15.8283C16.4606 15.8605 16.4666 15.8928 16.4712 15.9255C16.5103 16.1935 16.5103 16.4651 16.4712 16.7332C16.4666 16.7659 16.4606 16.7981 16.4551 16.8302C16.4371 16.9402 16.4128 17.0495 16.3826 17.1572C16.376 17.1805 16.3705 17.2038 16.3636 17.2266C16.2819 17.4929 16.1643 17.7483 16.0137 17.9868L16.0016 18.0046C15.3363 16.9734 15.3363 15.6834 16.0016 14.6524L16.0137 14.6718ZM18.0239 19.4704C18.0269 19.4732 18.0278 19.4771 18.0313 19.4798C18.0349 19.4826 18.0518 19.4948 18.0619 19.5027C18.1358 19.5623 18.2118 19.619 18.2899 19.6739C18.3233 19.6978 18.3569 19.7207 18.3899 19.7444C18.4574 19.7912 18.5263 19.8327 18.5967 19.8748C17.5697 19.5038 16.4313 19.5038 15.4043 19.8748C15.7615 19.6626 16.0851 19.4048 16.3657 19.1086C16.3686 19.1058 16.3725 19.105 16.3755 19.1016C16.3785 19.0984 16.3915 19.0825 16.4 19.0731C16.4641 19.0041 16.5245 18.9332 16.5835 18.8603C16.6089 18.8289 16.6334 18.7977 16.6591 18.7669C16.7144 18.6951 16.7666 18.6207 16.8165 18.5455C16.8405 18.51 16.8634 18.4752 16.8861 18.439C16.9254 18.3756 16.9639 18.3112 17.0005 18.2458C17.2577 18.7096 17.6047 19.1249 18.0239 19.4704ZM22.7733 19.1398C21.6748 19.7314 20.3221 19.7314 19.2238 19.1398L19.2062 19.1296C20.3147 18.5237 21.6872 18.5237 22.7957 19.1296L22.7733 19.1398ZM23.2232 20.9868C24.3215 20.3952 25.6742 20.3952 26.7727 20.9868L26.7951 20.997C25.6866 21.6031 24.3142 21.6031 23.2056 20.997L23.2232 20.9868ZM19.2238 13.5169C20.3221 12.9253 21.6748 12.9253 22.7733 13.5169L22.7957 13.5272C21.6872 14.1333 20.3147 14.1333 19.2062 13.5272L19.2238 13.5169ZM18.4013 14.1487C19.9559 15.1875 22.046 15.1875 23.6006 14.1487C24.0629 14.6274 24.362 15.2235 24.4606 15.8616H24.0006C23.7244 15.8616 23.5006 16.0706 23.5006 16.3284C23.5006 16.5863 23.7244 16.7953 24.0006 16.7953H24.4606C24.362 17.4333 24.0629 18.0296 23.6006 18.5083C22.046 17.4692 19.9559 17.4692 18.4013 18.5083C17.9393 18.0296 17.6399 17.4333 17.5415 16.7953H18.0013C18.2775 16.7953 18.5013 16.5863 18.5013 16.3284C18.5013 16.0706 18.2775 15.8616 18.0013 15.8616H17.5415C17.6399 15.2235 17.9393 14.6274 18.4013 14.1487ZM18.6368 11.67C17.5383 12.2615 16.1856 12.2615 15.0873 11.67L15.0672 11.6597C16.1757 11.0536 17.5481 11.0536 18.6567 11.6597L18.6368 11.67ZM15.0873 6.04685C16.1856 5.45528 17.5383 5.45528 18.6368 6.04685L18.6567 6.05818C17.5481 6.66406 16.1757 6.66406 15.0672 6.05818L15.0873 6.04685ZM13.402 9.32527H13.8618C14.138 9.32527 14.3618 9.11626 14.3618 8.85852C14.3618 8.60056 14.138 8.39154 13.8618 8.39154H13.402C13.5002 7.7536 13.7995 7.15732 14.2618 6.6786C15.8164 7.71748 17.9065 7.71748 19.4611 6.6786C19.9232 7.15732 20.2227 7.7536 20.3216 8.39154H19.8616C19.5856 8.39154 19.3616 8.60056 19.3616 8.85852C19.3616 9.11626 19.5856 9.32527 19.8616 9.32527H20.3216C20.223 9.96322 19.9236 10.5593 19.4616 11.0382C17.9072 9.99934 15.8169 9.99934 14.2623 11.0382C13.7998 10.5597 13.5004 9.96344 13.402 9.32527ZM10.7773 26.6099C9.67883 27.2015 8.32609 27.2015 7.22783 26.6099L7.20769 26.5996C8.31625 25.9935 9.68867 25.9935 10.7972 26.5996L10.7773 26.6099ZM11.6021 25.9781C10.0475 24.9393 7.95741 24.9393 6.40281 25.9781C5.94076 25.4994 5.64142 24.9031 5.54302 24.2652H6.00301C6.27901 24.2652 6.50282 24.0562 6.50282 23.7984C6.50282 23.5405 6.27901 23.3315 6.00301 23.3315H5.54302C5.64142 22.6935 5.94076 22.0972 6.40281 21.6185C7.95741 22.6574 10.0475 22.6574 11.6021 21.6185C12.0644 22.0972 12.3637 22.6935 12.4621 23.3315H12.0021C11.7259 23.3315 11.5021 23.5405 11.5021 23.7984C11.5021 24.0562 11.7259 24.2652 12.0021 24.2652H12.4621C12.3637 24.9031 12.0644 25.4994 11.6021 25.9781ZM26.7752 26.6099C25.6767 27.2015 24.324 27.2015 23.2257 26.6099L23.2056 26.5996C24.3142 25.9935 25.6866 25.9935 26.7951 26.5996L26.7752 26.6099ZM27.6 25.9781C26.0457 24.9393 23.9553 24.9393 22.4007 25.9781C21.9387 25.4994 21.6393 24.9031 21.5409 24.2652H22.0009C22.2769 24.2652 22.5007 24.0562 22.5007 23.7984C22.5007 23.5405 22.2769 23.3315 22.0009 23.3315H21.5409C21.6393 22.6935 21.9387 22.0972 22.4007 21.6185C23.9553 22.6574 26.0457 22.6574 27.6 21.6185C28.0623 22.0972 28.3616 22.6935 28.46 23.3315H28.0001C27.7241 23.3315 27.5002 23.5405 27.5002 23.7984C27.5002 24.0562 27.7241 24.2652 28.0001 24.2652H28.46C28.3616 24.9031 28.0623 25.4994 27.6 25.9781Z" fill="black"/>
</g>
<defs>
<filter id="filter0_d_2_670" x="0" y="0" width="34" height="36.0001" filterUnits="userSpaceOnUse" color-interpolation-filters="sRGB">
<feFlood flood-opacity="0" result="BackgroundImageFix"/>
<feColorMatrix in="SourceAlpha" type="matrix" values="0 0 0 0 0 0 0 0 0 0 0 0 0 0 0 0 0 0 127 0" result="hardAlpha"/>
<feOffset dy="4"/>
<feGaussianBlur stdDeviation="2"/>
<feColorMatrix type="matrix" values="0 0 0 0 0 0 0 0 0 0 0 0 0 0 0 0 0 0 0.25 0"/>
<feBlend mode="normal" in2="BackgroundImageFix" result="effect1_dropShadow_2_670"/>
<feBlend mode="normal" in="SourceGraphic" in2="effect1_dropShadow_2_670" result="shape"/>
</filter>
</defs>
</svg>
